#!OML:ASF F:\VICON\USERDATA\INSTALL\rory3\rory3.ASF
:FULLY-SPECIFIED
:DEGREES
498
root 3.71888 16.6164 0.244957 8.43382 -1.64463 4.07386
lowerback -4.85687 3.18802 -0.0301982
upperback 1.74167 4.47199 -4.58422
thorax 4.90346 2.30083 -4.3408
lowerneck -0.424635 8.74493 5.66883
upperneck 56.4257 11.4336 6.44566
head 25.4371 6.15336 4.91219
rclavicle 3.99557e-014 -2.54444e-014
rhumerus -27.954 2.08336 -92.666
rradius 74.935
rwrist -50.6206
rhand -1.17574 -46.3589
rfingers 7.12502
rthumb 24.4638 -74.8166
lclavicle 3.99557e-014 -2.54444e-014
lhumerus -13.5561 -13.9078 87.2693
lradius 60.7503
lwrist 74.4738
lhand -30.1367 -16.3231
lfingers 7.12502
lthumb -3.44943 13.6288
rfemur -52.245 10.6042 10.1054
rtibia 76.5501
rfoot 10.9669 3.29614
rtoes -31.5338
lfemur -27.5626 -2.93779 -32.7101
ltibia 43.7998
lfoot -21.5239 15.46
ltoes 7.58727
499
root 3.72463 16.6184 0.25406 8.38683 -1.56496 4.13313
lowerback -4.95212 3.22148 0.0165267
upperback 1.76522 4.5208 -4.64686
thorax 4.99558 2.32876 -4.4226
lowerneck -0.390476 8.71181 5.7507
upperneck 56.4514 11.3335 6.52591
head 25.4606 6.1415 4.93119
rclavicle -1.63003e-014 -1.59028e-015
rhumerus -27.9883 2.0962 -92.6636
rradius 74.6355
rwrist -50.7805
rhand -1.19564 -45.6331
rfingers 7.12502
rthumb 24.4447 -74.0934
lclavicle -1.63003e-014 -1.59028e-015
lhumerus -13.7043 -14.0993 87.291
lradius 60.7727
lwrist 74.8183
lhand -30.3311 -16.5443
lfingers 7.12502
lthumb -3.63724 13.4044
rfemur -52.0641 10.5352 10.0221
rtibia 76.5232
rfoot 10.8804 3.3854
rtoes -31.5652
lfemur -27.4032 -2.96468 -32.7945
ltibia 43.7082
lfoot -21.5806 15.3691
ltoes 7.76188
500
root 3.72867 16.6231 0.262552 8.34662 -1.45889 4.07694
lowerback -4.97459 3.20213 0.0746891
upperback 1.76978 4.49 -4.60941
thorax 5.01187 2.31468 -4.41777
lowerneck -0.302475 8.68185 5.69327
upperneck 56.4337 11.2892 6.5398
head 25.3836 6.12187 4.92436
rclavicle -1.47101e-014 1.59028e-014
rhumerus -28.1128 2.05599 -92.6439
rradius 74.4368
rwrist -50.7208
rhand -1.20916 -45.5226
rfingers 7.12502
rthumb 24.4317 -73.9847
lclavicle -1.47101e-014 1.59028e-014
lhumerus -13.8653 -14.199 87.3636
lradius 60.8372
lwrist 75.5495
lhand -31.2612 -17.7576
lfingers 7.12502
lthumb -4.5354 12.1738
rfemur -51.8671 10.5217 10.0712
rtibia 76.4697
rfoot 10.7376 3.45476
rtoes -32.2543
lfemur -27.3134 -2.96724 -32.735
ltibia 43.7011
lfoot -21.5042 15.3
ltoes 7.20864
501
root 3.73166 16.6195 0.265188 8.35946 -1.42004 4.04197
lowerback -5.04708 3.1361 0.0272114
upperback 1.83229 4.40459 -4.51654
thorax 5.09979 2.26966 -4.29701
lowerneck -0.333449 8.6832 5.50022
upperneck 56.452 11.3195 6.54406
head 25.3787 6.09067 4.96798
rclavicle -2.25621e-014 1.35174e-014
rhumerus -28.0629 2.27238 -92.5765
rradius 74.2281
rwrist -50.7095
rhand -1.29092 -46.711
rfingers 7.12502
rthumb 24.3533 -75.1837
lclavicle -2.25621e-014 1.35174e-014
lhumerus -13.8636 -14.1326 87.4203
lradius 60.9515
lwrist 76.4924
lhand -31.759 -18.9916
lfingers 7.12502
lthumb -5.01606 10.9291
rfemur -51.8501 10.5321 10.0753
rtibia 76.4678
rfoot 10.6682 3.67289
rtoes -32.9391
lfemur -27.3445 -2.9026 -32.7015
ltibia 43.7909
lfoot -21.6485 15.1394
ltoes 7.35988
502
root 3.73382 16.6067 0.263392 8.40139 -1.40765 4.02323
lowerback -5.21529 3.06544 -0.0746111
upperback 1.92346 4.31907 -4.39634
thorax 5.26628 2.22255 -4.11188
lowerneck -0.258864 8.69987 5.57473
upperneck 56.3891 11.4952 6.18355
head 25.3459 6.14292 4.75862
rclavicle 4.29375e-014 -1.51076e-014
rhumerus -27.9175 2.63037 -92.4715
rradius 73.9813
rwrist -50.7017
rhand -1.52376 -47.5634
rfingers 7.12502
rthumb 24.1301 -76.0658
lclavicle 4.29375e-014 -1.51076e-014
lhumerus -13.7259 -13.9255 87.4909
lradius 60.9478
lwrist 76.9547
lhand -31.8364 -19.5153
lfingers 7.12502
lthumb -5.09073 10.4036
rfemur -51.9566 10.5276 10.0466
rtibia 76.5406
rfoot 10.5772 3.67667
rtoes -33.1081
lfemur -27.4482 -2.7855 -32.6921
ltibia 43.9263
lfoot -21.8976 14.8619
ltoes 8.10237
